<?xml version="1.0" encoding="UTF-8" standalone="no"?> <svg id="Layer_1" data-name="Layer 1" xmlns="http://www.w3.org/2000/svg" viewBox="0 0 64 64"><defs><style>.cls-1{fill:#3bb9ec;}.cls-2{fill:#ed9d26;}.cls-3{fill:#2043d3;}.cls-4{fill:#f13c15;}</style></defs><title>symptom-indicative-illness-indication-sign</title><path class="cls-1" d="M52.02,20H33.21a6.156,6.156,0,0,0,2.6-5.054,5.814,5.814,0,1,0-11.625,0A6.156,6.156,0,0,0,26.79,20H7.98A1.889,1.889,0,0,0,6,21.862v.04a1.97,1.97,0,0,0,1.98,1.962L23,25.846v32.7A2.464,2.464,0,0,0,25.475,61h.05A2.464,2.464,0,0,0,28,58.547V41h4V58.547A2.464,2.464,0,0,0,34.475,61h.05A2.464,2.464,0,0,0,37,58.547v-32.7l15.02-1.982A1.97,1.97,0,0,0,54,21.9v-.04A1.889,1.889,0,0,0,52.02,20Z"/><path d="M24,31H22V26.723L7.908,24.863A2.973,2.973,0,0,1,5,21.9,2.9,2.9,0,0,1,7.98,19H24.423a7.314,7.314,0,0,1-1.236-4.054,6.814,6.814,0,1,1,13.625,0A7.313,7.313,0,0,1,35.577,19H38v2H33.21a1,1,0,0,1-.562-1.827,5.14,5.14,0,0,0,2.164-4.227,4.814,4.814,0,1,0-9.625,0,5.141,5.141,0,0,0,2.165,4.227A1,1,0,0,1,26.79,21H7.98a.9.9,0,0,0-.98.862.98.98,0,0,0,.98,1,.961.961,0,0,1,.131.009l15.02,1.982a1,1,0,0,1,.869.991Z"/><path d="M38,28H36V25.846a1,1,0,0,1,.869-.991l15.02-1.982a.961.961,0,0,1,.131-.009A.971.971,0,0,0,53,21.9a.907.907,0,0,0-.98-.9H48V19h4.02A2.892,2.892,0,0,1,55,21.862a2.983,2.983,0,0,1-2.908,3L38,26.723Z"/><path d="M34.525,62A3.479,3.479,0,0,1,31,58.547V42H29V58.547a3.5,3.5,0,0,1-7,0V42h2V58.547a1.5,1.5,0,0,0,3,0V41a1,1,0,0,1,1-1h4a1,1,0,0,1,1,1V58.547a1.5,1.5,0,0,0,3,0V35h2V58.547A3.468,3.468,0,0,1,34.525,62Z"/><circle class="cls-2" cx="54" cy="10" r="7"/><path d="M54,18a8,8,0,1,1,8-8A8.009,8.009,0,0,1,54,18ZM54,4a6,6,0,1,0,6,6A6.006,6.006,0,0,0,54,4Z"/><circle class="cls-3" cx="51" cy="50" r="10"/><path d="M51,61A11,11,0,1,1,62,50,11.013,11.013,0,0,1,51,61Zm0-20a9,9,0,1,0,9,9A9.011,9.011,0,0,0,51,41Z"/><circle class="cls-2" cx="11" cy="53" r="8"/><path d="M11,62a9,9,0,1,1,9-9A9.011,9.011,0,0,1,11,62Zm0-16a7,7,0,1,0,7,7A7.008,7.008,0,0,0,11,46Z"/><circle class="cls-3" cx="10" cy="10" r="7"/><path d="M10,18a8,8,0,1,1,8-8A8.009,8.009,0,0,1,10,18ZM10,4a6,6,0,1,0,6,6A6.006,6.006,0,0,0,10,4Z"/><path d="M15,57H13a1,1,0,0,1-1-1,1,1,0,0,0-2-.02A1.018,1.018,0,0,1,9,57H7V55H8.169a3.006,3.006,0,0,1,5.665,0H15Z"/><rect x="10" y="48" width="2" height="3"/><rect x="6" y="49.586" width="2" height="2.828" transform="translate(-34.012 19.887) rotate(-45)"/><rect x="13.586" y="50" width="2.828" height="2" transform="translate(-31.669 25.544) rotate(-45)"/><path class="cls-4" d="M54.52,44.476l-.023-.022a1.7,1.7,0,0,0-2.316,0L51,45.572l-1.181-1.118a1.7,1.7,0,0,0-2.316,0l-.023.022a1.491,1.491,0,0,0,0,2.192l1.181,1.118L51,50l2.339-2.214,1.181-1.118A1.491,1.491,0,0,0,54.52,44.476Z"/><path d="M51,51a1,1,0,0,1-.688-.274l-3.52-3.332a2.492,2.492,0,0,1,0-3.644,2.724,2.724,0,0,1,3.714-.022L51,44.2l.494-.467a2.718,2.718,0,0,1,3.691,0l.023.022a2.492,2.492,0,0,1,0,3.644l-3.521,3.332A.993.993,0,0,1,51,51Zm-2.339-6a.687.687,0,0,0-.471.18.528.528,0,0,0-.19.392.5.5,0,0,0,.167.37L51,48.623l2.833-2.681a.493.493,0,0,0,0-.739l-.021-.019a.7.7,0,0,0-.944,0L51.687,46.3a1,1,0,0,1-1.375,0l-1.181-1.117A.679.679,0,0,0,48.661,45Z"/><path d="M52,57a1,1,0,0,1-.832-.445l-1.044-1.567-.229.459A1,1,0,0,1,49,56H46V54h2.382l.723-1.447A1,1,0,0,1,49.938,52a.987.987,0,0,1,.894.443l1.044,1.567.229-.459A1,1,0,0,1,53,53h4v2H53.618L52.9,56.447a1,1,0,0,1-.833.551C52.042,57,52.021,57,52,57Z"/><path d="M54.9,14.447l-1.79-.894L54.382,11H53a1,1,0,0,1-.9-1.447l2-4,1.79.894L54.618,9H56a1,1,0,0,1,.9,1.447Z"/><polygon points="14 9 11 9 11 6 9 6 9 9 6 9 6 11 9 11 9 14 11 14 11 11 14 11 14 9"/><rect x="10" y="40" width="2" height="2"/><rect x="10" y="36" width="2" height="2"/><rect x="14" y="36" width="2" height="2"/><rect x="18" y="36" width="2" height="2"/><circle class="cls-4" cx="25" cy="36" r="2"/><path d="M25,39a3,3,0,1,1,3-3A3,3,0,0,1,25,39Zm0-4a1,1,0,1,0,1,1A1,1,0,0,0,25,35Z"/><rect x="38" y="31" width="2" height="2"/><rect x="34" y="31" width="2" height="2"/><path d="M31,31a3,3,0,1,1,3-3A3,3,0,0,1,31,31Zm0-4a1,1,0,1,0,1,1A1,1,0,0,0,31,27Z"/><circle class="cls-4" cx="31" cy="28" r="2"/><path d="M31,31a3,3,0,1,1,3-3A3,3,0,0,1,31,31Zm0-4a1,1,0,1,0,1,1A1,1,0,0,0,31,27Z"/><circle class="cls-4" cx="43" cy="19" r="2"/><path d="M43,22a3,3,0,1,1,3-3A3,3,0,0,1,43,22Zm0-4a1,1,0,1,0,1,1A1,1,0,0,0,43,18Z"/><rect x="50" y="35" width="2" height="2"/><rect x="50" y="31" width="2" height="2"/><rect x="50" y="31" width="2" height="2"/><rect x="46" y="31" width="2" height="2"/><rect x="42" y="31" width="2" height="2"/><rect x="42" y="8" width="2" height="2"/><rect x="42" y="12" width="2" height="2"/><rect x="20" y="9" width="2" height="2"/><rect x="20" y="13" width="2" height="2"/></svg>